<svg width="40" height="40" viewBox="0 0 40 40" fill="none" xmlns="http://www.w3.org/2000/svg">
<path d="M38.1387 8C38.614 8 38.9999 8.38594 39 8.86133V30.2588C39 30.7344 38.6141 31.1201 38.1387 31.1201H1.86133C1.38598 31.1201 1 30.7342 1 30.2588V8.86133C1.00008 8.3858 1.38591 8 1.86133 8H38.1387ZM25.8398 9.02344C23.4557 9.02347 21.2531 9.81295 19.4834 11.1445C17.7114 9.81344 15.505 9.02344 13.1162 9.02344C7.27695 9.02345 2.5355 13.7363 2.53516 19.5596C2.53516 25.3831 7.27677 30.0967 13.1162 30.0967C15.477 30.0967 17.6588 29.3232 19.4199 28.0205C21.2003 29.3809 23.4274 30.1884 25.8398 30.1885C31.6838 30.1885 36.4208 25.451 36.4209 19.6064C36.4209 18.4602 36.2365 17.357 35.8994 16.3232L35.9766 15.8496H35.7324C34.2169 11.8601 30.3607 9.02344 25.8398 9.02344ZM25.8398 10.0234C31.1314 10.0234 35.4208 14.3141 35.4209 19.6064L35.4092 20.0996C35.1525 25.1628 30.9661 29.1885 25.8398 29.1885C23.5087 29.1884 21.3711 28.3568 19.71 26.9727C21.1959 25.6799 22.292 23.9462 22.793 21.9746H22.0107C21.5659 23.6294 20.6708 25.102 19.4648 26.2529C18.2589 25.102 17.3648 23.6294 16.9199 21.9746H16.1758C16.6797 23.9175 17.7612 25.6266 19.2246 26.9072C17.5665 28.2742 15.4376 29.0967 13.1162 29.0967L12.623 29.084C7.72395 28.8368 3.79619 24.9269 3.54785 20.0508L3.53516 19.5596C3.5355 14.2931 7.82479 10.0235 13.1162 10.0234C15.3994 10.0234 17.4965 10.8187 19.1426 12.1455C17.7578 13.3846 16.7245 15.0123 16.2148 16.8574H17.0137C17.4841 15.3353 18.3387 13.98 19.4648 12.9053C20.5911 13.98 21.4456 15.3353 21.916 16.8574H22.7275C22.2108 15.0221 21.1766 13.4038 19.793 12.1729C21.4421 10.8293 23.5469 10.0235 25.8398 10.0234ZM25.1211 16.7598C23.9699 16.7599 22.8497 17.7667 22.8496 19.6562C22.8496 20.9092 23.4548 21.7361 24.6445 21.7363C24.981 21.7364 25.5176 21.5986 25.5176 21.5986L25.6953 20.5039C25.6953 20.5039 25.2059 20.7509 24.8701 20.751C24.2511 20.751 23.9566 20.3347 23.8926 19.8389L23.8789 19.623C23.879 18.437 24.4875 17.7842 25.165 17.7842C25.6667 17.7842 26.071 18.0642 26.0811 18.0713L26.2441 17.0059C26.2376 17.0032 25.6366 16.7598 25.1211 16.7598ZM11.6279 17.6484C10.9586 17.6484 10.4437 17.8675 10.4375 17.8701L10.2949 18.7324C10.3004 18.7302 10.7254 18.5566 11.3652 18.5566C11.7307 18.5567 11.9989 18.5984 11.999 18.9014C11.999 19.0777 11.9683 19.1477 11.9658 19.1533C11.9528 19.1522 11.6745 19.1289 11.5439 19.1289C10.6947 19.1289 9.80282 19.4996 9.80273 20.6143C9.80294 21.4923 10.3873 21.6934 10.75 21.6934C11.4428 21.6934 11.7419 21.2348 11.7578 21.2334L11.7246 21.6162H12.5898L12.9766 18.8574C12.9764 17.6878 11.976 17.6485 11.6279 17.6484ZM19.2021 17.6484C18.1976 17.6489 17.4542 18.7298 17.4541 19.9502C17.4542 21.3586 18.3856 21.6933 19.1797 21.6934C19.9091 21.6934 20.2332 21.5319 20.2363 21.5303L20.4111 20.5684C20.4111 20.5684 19.8532 20.8135 19.3496 20.8135C18.277 20.8133 18.4648 20.0146 18.4648 20.0146H20.4961C20.5002 19.9945 20.6279 19.3656 20.6279 19.1064C20.6279 18.4497 20.2993 17.6484 19.2021 17.6484ZM27.7842 17.6436C27.1173 17.6436 26.6048 17.8626 26.5986 17.8652L26.4561 18.7275C26.4616 18.7253 26.885 18.5518 27.5225 18.5518C27.8867 18.5518 28.1532 18.5933 28.1533 18.8965C28.1533 19.0727 28.1236 19.1428 28.1211 19.1484C28.1128 19.1477 27.8315 19.124 27.7002 19.124C26.8542 19.124 25.9649 19.495 25.9648 20.6104C25.965 21.489 26.5488 21.6904 26.9102 21.6904C27.6004 21.6904 27.8983 21.2319 27.9141 21.2305L27.8809 21.6123H28.7422L29.1279 18.8525C29.1279 17.6821 28.1309 17.6436 27.7842 17.6436ZM16.165 17.1709C16.1433 17.1927 15.5842 20.4188 15.584 20.8125C15.584 21.3943 15.9103 21.6546 16.3691 21.6504C16.6978 21.6475 16.9526 21.5649 17.0703 21.5303C17.0827 21.5269 17.1064 21.5205 17.1064 21.5205L17.2305 20.6797C17.1633 20.6797 17.0638 20.7089 16.9766 20.709C16.6343 20.709 16.5955 20.5268 16.6172 20.3916L16.8936 18.6777H17.415L17.541 17.749H17.0498L17.1504 17.1709H16.165ZM14.6826 17.6484C13.9596 17.6484 13.2247 17.9408 13.2246 18.9375C13.2246 20.0669 14.4489 19.9531 14.4492 20.4287C14.4492 20.7463 14.1072 20.7725 13.8438 20.7725C13.3901 20.7725 12.9822 20.6172 12.9766 20.623L12.8447 21.4854C12.8683 21.4927 13.1225 21.6064 13.9424 21.6064C14.1625 21.6064 15.4207 21.6622 15.4209 20.3516C15.4208 19.1262 14.2559 19.3683 14.2559 18.876C14.2561 18.6313 14.4454 18.5538 14.792 18.5537C14.9278 18.5537 15.4457 18.5964 15.4609 18.5977L15.584 17.7266C15.5803 17.7258 15.2382 17.6485 14.6826 17.6484ZM22.8408 17.6904C22.3932 17.6908 22.0598 18.2862 22.0527 18.2988L22.1426 17.7402H21.2021L20.5713 21.5977H21.6104C21.9045 19.9505 21.9581 18.6127 22.6602 18.8574C22.783 18.2203 22.9021 17.9738 23.0361 17.7041C23.0337 17.7036 22.9702 17.6904 22.8408 17.6904ZM31.2578 17.6904C30.8088 17.6904 30.4741 18.2892 30.4688 18.2988L30.5586 17.7402H29.6191L28.9873 21.5977H30.0254C30.3197 19.9506 30.3745 18.6128 31.0762 18.8574C31.1992 18.2203 31.3182 17.9738 31.4521 17.7041C31.4471 17.7031 31.3841 17.6905 31.2578 17.6904ZM33.7988 16.8555L33.584 18.1729C33.5779 18.1647 33.2027 17.6614 32.6191 17.6611C31.704 17.6611 30.9415 18.7488 30.9414 19.999C30.9415 20.806 31.347 21.5976 32.1787 21.5977C32.7677 21.5977 33.0982 21.199 33.1084 21.1865L33.0654 21.5371H34.0371L34.7998 16.8525L33.7988 16.8555ZM6.12207 16.8662L5.3252 21.5625H6.28613L6.89355 18.0215L6.9834 21.5625H7.6709L8.9541 18.0215L8.38477 21.5625H9.40625L10.1934 16.8662H8.61328L7.62988 19.7471L7.5791 16.8662H6.12207ZM11.6289 19.9102C11.7969 19.9104 11.8154 19.9288 11.8438 19.9336C11.8625 20.1053 11.7391 20.9102 11.1445 20.9102C10.8385 20.9099 10.7589 20.6686 10.7588 20.5254C10.7588 20.2461 10.9054 19.9102 11.6289 19.9102ZM27.7852 19.9062C27.9323 19.9065 27.9634 19.921 27.9883 19.9277C27.9851 19.9273 27.9854 19.9274 27.999 19.9297C28.0178 20.1015 27.895 20.907 27.3027 20.9072C26.9974 20.9072 26.919 20.6649 26.9189 20.5215C26.919 20.242 27.0646 19.9063 27.7852 19.9062ZM32.7764 18.5938C33.1394 18.5937 33.3261 18.8391 33.3262 19.416C33.3262 19.9398 33.0618 20.6396 32.5146 20.6396C32.1971 20.6395 32.0269 20.4103 31.9893 20.0381L31.9814 19.8701C31.9815 19.1015 32.3331 18.5938 32.7764 18.5938ZM19.1973 18.5186C19.7667 18.5186 19.6645 19.1603 19.6641 19.2148H18.54C18.5404 19.1465 18.6472 18.5187 19.1973 18.5186Z" fill="#7D7D7D"/>
</svg>
